<?xml version="1.0" encoding="UTF-8"?> <svg xmlns="http://www.w3.org/2000/svg" width="888.88" height="157.78" viewBox="0 0 888.88 157.78"><g id="fc47b8c4-25d3-4357-b1c6-8db164740182" data-name="Layer 2"><g id="fea23be7-b6e3-405a-ae5d-55d9edfc9672" data-name="Layer 1"><path d="M47.36,93.91a6.85,6.85,0,0,0-.47,1.22,4.69,4.69,0,0,0-.18,1.23v22.89a9.59,9.59,0,0,1-.9,3.9,9,9,0,0,1-3.47,3.68,22.89,22.89,0,0,1-7,2.74,51,51,0,0,1-11.62,1.08,70.41,70.41,0,0,1-12.24-.86,22.13,22.13,0,0,1-7.22-2.42,7.64,7.64,0,0,1-3.39-3.68A12.6,12.6,0,0,1,0,119.1V37.23a9.5,9.5,0,0,1,1.19-4.76,9.48,9.48,0,0,1,3.9-3.57,23.77,23.77,0,0,1,7.15-2.28,64,64,0,0,1,11-.79,71.37,71.37,0,0,1,11,.72,24.59,24.59,0,0,1,7.25,2.13,9.24,9.24,0,0,1,4,3.57,9.94,9.94,0,0,1,1.23,5V58.1a7.18,7.18,0,0,0,.18,1.59,6.45,6.45,0,0,0,.47,1.37,5.64,5.64,0,0,0,.72,1.3H29.46a6.4,6.4,0,0,0,.65-1.23c.14-.39.28-.83.43-1.34a6.24,6.24,0,0,0,.22-1.69v-21q0-3.69-2-5a9.81,9.81,0,0,0-5.48-1.34,9.3,9.3,0,0,0-5.38,1.34c-1.28.89-1.91,2.56-1.91,5v82.37q0,3.54,1.69,5.1t5.6,1.55c2.74,0,4.68-.56,5.81-1.66a6.7,6.7,0,0,0,1.7-5V96.36a4.1,4.1,0,0,0-.22-1.23A8.92,8.92,0,0,0,30,93.91a6.38,6.38,0,0,0-.72-1.23H48.08A6.38,6.38,0,0,0,47.36,93.91Z" style="fill:#fff"></path><path d="M79.56,130.08l.22-.65c0-.24.09-.48.14-.72a4.37,4.37,0,0,0,.07-.87v-.72l-2-14.66H65.41l-2.53,15v.43a5.79,5.79,0,0,0,0,.72,6,6,0,0,0,.11.72c0,.25.09.51.14.8H55.3a5,5,0,0,0,.44-.72c.09-.25.2-.54.32-.91a10.3,10.3,0,0,0,.33-1.33l13.28-76a9.28,9.28,0,0,0,.18-1.56c0-.55.06-1.09.11-1.62s.09-1.18.14-1.81H83.31a14.72,14.72,0,0,0,0,1.88c0,.53,0,1.08.08,1.66a9.26,9.26,0,0,0,.21,1.45L95.73,127c.1.39.19.76.29,1.12a5.89,5.89,0,0,0,.36,1,10.64,10.64,0,0,0,.51,1Zm-6.5-60.5h-.58l-6.2,38.76H77.54Z" style="fill:#fff"></path><path d="M140.64,130.08H104.11l.43-1.45c.1-.38.19-.79.29-1.22a5.87,5.87,0,0,0,.14-1.16V50.8a5.77,5.77,0,0,0-.25-1.69,13.78,13.78,0,0,0-.54-1.48,16.72,16.72,0,0,0-.79-1.52h17.54a13.72,13.72,0,0,0-.58,1.38A14,14,0,0,0,120,49a8.86,8.86,0,0,0-.18,1.8v74.87H136a28.29,28.29,0,0,0,2.85-.14,23.66,23.66,0,0,0,3.07-.51Z" style="fill:#fff"></path><path d="M148.44,130.08a10.53,10.53,0,0,0,.43-1.08c.1-.34.19-.75.29-1.23a8.26,8.26,0,0,0,.14-1.52V50.8a7.16,7.16,0,0,0-.18-1.58c-.12-.53-.25-1-.4-1.52l-.57-1.59h17.11a11.74,11.74,0,0,0-.58,1.38,14.68,14.68,0,0,0-.4,1.48,8.6,8.6,0,0,0-.18,1.83v75.6a3.46,3.46,0,0,0,.22,1.19,5.94,5.94,0,0,0,.58,1.19,6.28,6.28,0,0,0,.79,1.3Z" style="fill:#fff"></path><path d="M214.21,51.38a23.4,23.4,0,0,0-2.67-.54,18.48,18.48,0,0,0-2.53-.18h-16v32h13.14a15.79,15.79,0,0,0,2.85-.29c1.09-.19,2.26-.4,3.51-.65l-1.3,5.78a20.94,20.94,0,0,0-3.11-.58c-1-.09-1.9-.14-2.81-.14H193.05V126.4a4.9,4.9,0,0,0,.22,1.51,4.2,4.2,0,0,0,.58,1.16,4.65,4.65,0,0,0,.86,1H177.39c.14-.34.29-.72.43-1.16s.19-.79.29-1.23a7,7,0,0,0,.14-1.44V50.8a5.16,5.16,0,0,0-.25-1.58c-.17-.53-.35-1-.54-1.52s-.51-1.06-.8-1.59h38.85Z" style="fill:#fff"></path><path d="M264,121.34a7.57,7.57,0,0,1-.9,3.68,7.44,7.44,0,0,1-3.29,2.89,22.21,22.21,0,0,1-6.49,1.91,66.46,66.46,0,0,1-10.62.69,60.55,60.55,0,0,1-10-.69,22,22,0,0,1-6.42-1.94,8.3,8.3,0,0,1-3.43-3,7.19,7.19,0,0,1-1-3.72V54.34q0-4.19,5.2-6.42t15.81-2.24q10.68,0,15.92,2.06t5.23,6.6ZM249.37,53.62a2.62,2.62,0,0,0-.58-1.66,4.74,4.74,0,0,0-1.48-1.19,8.4,8.4,0,0,0-2.09-.72,12,12,0,0,0-2.5-.25,9.52,9.52,0,0,0-4.18.9,3,3,0,0,0-1.88,2.92v68.3a3.62,3.62,0,0,0,.54,2,4.32,4.32,0,0,0,1.41,1.41,7.12,7.12,0,0,0,1.95.83,8.44,8.44,0,0,0,2.16.29,9.8,9.8,0,0,0,4.7-1.05,3.48,3.48,0,0,0,2-3.29Z" style="fill:#fff"></path><path d="M305.9,130.08a6.33,6.33,0,0,1-.8-1.52,12.81,12.81,0,0,1-.5-1.55,6.45,6.45,0,0,1-.22-1.7V99.18a2.44,2.44,0,0,0-1.55-2.46,10.82,10.82,0,0,0-4.08-.65h-7.08v29.6a8,8,0,0,0,.18,1.7,6.29,6.29,0,0,0,.47,1.41,9.27,9.27,0,0,0,.65,1.3H276c.14-.39.29-.84.43-1.37s.19-.86.29-1.41a11,11,0,0,0,.14-1.77V52.18a13.41,13.41,0,0,0-.18-2.13c-.12-.75-.25-1.41-.39-2l-.58-2h25.56q3.68,0,6.89.29a24.06,24.06,0,0,1,5.63,1.12,9.44,9.44,0,0,1,3.83,2.31A5.47,5.47,0,0,1,319,53.76v34A4.46,4.46,0,0,1,316.62,92a21.26,21.26,0,0,1-6.75,2A24.54,24.54,0,0,1,316.62,96,4,4,0,0,1,319,99.75v25.92a5.47,5.47,0,0,0,.25,1.63,6.16,6.16,0,0,0,.61,1.41,5.53,5.53,0,0,0,.87,1.37Zm-1.52-76.46a3.1,3.1,0,0,0-1.23-2.6c-.82-.62-2.28-.94-4.4-.94h-7.08v42H299c2,0,3.35-.37,4.15-1.12a3.3,3.3,0,0,0,1.19-2.42Z" style="fill:#fff"></path><path d="M357,130.08l-16.1-56.46h-.72v52.49a9.76,9.76,0,0,0,.36,2.6,13.7,13.7,0,0,0,.36,1.37H332c.15-.39.29-.8.43-1.23s.2-.8.29-1.26a6.25,6.25,0,0,0,.15-1.34V51a8.17,8.17,0,0,0-.18-1.66c-.12-.58-.26-1.11-.4-1.59s-.38-1.06-.58-1.59h16.68l14.8,52.78h.72V50.52a12.29,12.29,0,0,0-.11-1.81,11.78,11.78,0,0,0-.25-1.37l-.36-1.23h8.45c-.1.34-.2.72-.29,1.16a8.77,8.77,0,0,0-.22,1.33c-.05.51-.07,1.1-.07,1.77v75.74a8.15,8.15,0,0,0,.14,1.51c.1.49.2.92.29,1.3s.29.82.44,1.16Z" style="fill:#fff"></path><path d="M383.22,130.08a8.65,8.65,0,0,0,.43-1.08c.1-.34.19-.75.29-1.23a7.47,7.47,0,0,0,.14-1.52V50.8a7.16,7.16,0,0,0-.18-1.58c-.12-.53-.25-1-.39-1.52s-.39-1.06-.58-1.59H400a13.72,13.72,0,0,0-.58,1.38,14.84,14.84,0,0,0-.39,1.48,8,8,0,0,0-.18,1.83v75.6a3.69,3.69,0,0,0,.21,1.19,6.53,6.53,0,0,0,.58,1.19,6.75,6.75,0,0,0,.79,1.3Z" style="fill:#fff"></path><path d="M431.66,130.08l.22-.65c.05-.24.09-.48.14-.72a4.3,4.3,0,0,0,.08-.87v-.72l-2-14.66H417.51l-2.53,15v.43c0,.24,0,.48,0,.72s.06.48.11.72.09.51.14.8h-7.86a6.21,6.21,0,0,0,.43-.72c.09-.25.2-.54.32-.91a10.3,10.3,0,0,0,.33-1.33l13.28-76a9.28,9.28,0,0,0,.18-1.56c0-.55.06-1.09.11-1.62s.1-1.18.14-1.81h13.22a11.78,11.78,0,0,0,0,1.88c0,.53,0,1.08.07,1.66a10.63,10.63,0,0,0,.21,1.45L447.83,127c.1.39.2.76.29,1.12a5.89,5.89,0,0,0,.36,1c.15.33.32.67.51,1Zm-6.49-60.5h-.58l-6.21,38.76h11.26Z" style="fill:#fff"></path><path d="M488.63,157.78V0H501V157.78Z" style="fill:#fff"></path><path d="M592.12,32q-.76-.11-1.59-.15l-1.62-.07-1.3,0H574.75v92.7c0,.77,0,1.48.08,2.13a16.58,16.58,0,0,0,.21,1.77c.1.57.19,1.15.29,1.73h-16q.14-.72.36-1.59c.09-.53.18-1.11.25-1.74a17.91,17.91,0,0,0,.11-2v-93H547.68l-3.1,0a14.44,14.44,0,0,0-3.11.4l1.74-5.63h48.51l1.66,5.63Z" style="fill:#fff"></path><path d="M624.86,51.6a8.27,8.27,0,0,0-2.27-.72,14.3,14.3,0,0,0-2.49-.22H603.71v32h13.14a15.88,15.88,0,0,0,2.85-.29c1.08-.19,2.25-.4,3.5-.65l-1.3,5.78a20.82,20.82,0,0,0-3.1-.58c-1-.09-1.91-.14-2.82-.14H603.71v38.91H620.1a30.35,30.35,0,0,0,3.06-.14,14.19,14.19,0,0,0,2.71-.51l-1.3,5.06H588c.14-.39.29-.8.43-1.23s.19-.8.29-1.26a6.25,6.25,0,0,0,.15-1.34V50.8a7.81,7.81,0,0,0-.18-1.58c-.13-.53-.26-1-.4-1.52s-.39-1.06-.58-1.59h38.41Z" style="fill:#fff"></path><path d="M672.15,130.08H635.62l.43-1.45c.1-.38.19-.79.29-1.22a5.27,5.27,0,0,0,.15-1.16V50.8a5.78,5.78,0,0,0-.26-1.69,13.78,13.78,0,0,0-.54-1.48,14.57,14.57,0,0,0-.8-1.52h17.55a11.74,11.74,0,0,0-.58,1.38,14,14,0,0,0-.4,1.51,8.86,8.86,0,0,0-.18,1.8v74.87h16.25a28.29,28.29,0,0,0,2.85-.14,24,24,0,0,0,3.07-.51Z" style="fill:#fff"></path><path d="M713.8,51.6a8.17,8.17,0,0,0-2.27-.72,14.13,14.13,0,0,0-2.49-.22H692.65v32h13.14a15.79,15.79,0,0,0,2.85-.29c1.09-.19,2.25-.4,3.5-.65l-1.29,5.78a20.7,20.7,0,0,0-3.11-.58c-1-.09-1.9-.14-2.81-.14H692.65v38.91H709a30.55,30.55,0,0,0,3.07-.14,14.34,14.34,0,0,0,2.71-.51l-1.3,5.06H677c.14-.39.28-.8.43-1.23s.19-.8.29-1.26a6.93,6.93,0,0,0,.14-1.34V50.8a7.16,7.16,0,0,0-.18-1.58c-.12-.53-.25-1-.4-1.52l-.57-1.59h38.41Z" style="fill:#fff"></path><path d="M767.81,100a5.11,5.11,0,0,0-.47,1.16,4.78,4.78,0,0,0-.18,1.29v18.92a7.75,7.75,0,0,1-.87,3.58,7.12,7.12,0,0,1-3.21,2.92,22.7,22.7,0,0,1-6.46,1.95,63.69,63.69,0,0,1-10.61.72,65.18,65.18,0,0,1-10-.65,22.11,22.11,0,0,1-6.46-1.88,8.15,8.15,0,0,1-3.47-3,7.21,7.21,0,0,1-1-3.82V54.7a7,7,0,0,1,1.08-3.79,8.12,8.12,0,0,1,3.57-2.85,24.57,24.57,0,0,1,6.5-1.77,68,68,0,0,1,9.86-.61,74.42,74.42,0,0,1,9.71.54,23.83,23.83,0,0,1,6.56,1.7A8.64,8.64,0,0,1,766,50.77a6.84,6.84,0,0,1,1.16,3.93V72.25a4.65,4.65,0,0,0,.18,1.33,5,5,0,0,0,.47,1.12,7.84,7.84,0,0,0,.65,1.09H751.2c.24-.39.46-.77.65-1.16s.29-.71.44-1.12a3.87,3.87,0,0,0,.21-1.26V53.76a2.79,2.79,0,0,0-.61-1.83,4.6,4.6,0,0,0-1.55-1.23,8.32,8.32,0,0,0-2.13-.69,13.59,13.59,0,0,0-2.35-.21,9.57,9.57,0,0,0-4.19.9,3,3,0,0,0-1.87,2.92v68.44a3.59,3.59,0,0,0,1.77,3.18A7.94,7.94,0,0,0,746,126.4a8.78,8.78,0,0,0,4.8-1.12,3.65,3.65,0,0,0,1.69-3.22V102.42a4.15,4.15,0,0,0-.21-1.29c-.15-.44-.29-.82-.44-1.16a8.36,8.36,0,0,0-.65-1.08h17.26A8.36,8.36,0,0,0,767.81,100Z" style="fill:#fff"></path><path d="M822.32,121.34a7.57,7.57,0,0,1-.91,3.68,7.41,7.41,0,0,1-3.28,2.89,22.28,22.28,0,0,1-6.5,1.91,66.33,66.33,0,0,1-10.61.69,60.38,60.38,0,0,1-10-.69,22.13,22.13,0,0,1-6.43-1.94,8.27,8.27,0,0,1-3.42-3,7.11,7.11,0,0,1-1-3.72V54.34c0-2.79,1.74-4.93,5.2-6.42s8.74-2.24,15.81-2.24,12.43.68,15.92,2.06,5.24,3.57,5.24,6.6ZM807.66,53.62a2.57,2.57,0,0,0-.58-1.66,4.52,4.52,0,0,0-1.48-1.19,8.26,8.26,0,0,0-2.09-.72A12,12,0,0,0,801,49.8a9.57,9.57,0,0,0-4.19.9A3,3,0,0,0,795,53.62v68.3a3.55,3.55,0,0,0,.55,2,4.39,4.39,0,0,0,1.4,1.41,7.12,7.12,0,0,0,2,.83,8.58,8.58,0,0,0,2.17.29,9.76,9.76,0,0,0,4.69-1.05,3.48,3.48,0,0,0,1.95-3.29Z" style="fill:#fff"></path><path d="M888.38,47.12c-.1.34-.2.72-.29,1.12a5.32,5.32,0,0,0-.15,1.27v77.32a10.64,10.64,0,0,0,.08,1.37,4.48,4.48,0,0,0,.21,1,8.82,8.82,0,0,0,.29.87H872.57a8.84,8.84,0,0,1,.36-.94c.09-.29.19-.62.29-1a5.76,5.76,0,0,0,.14-1.3V72.25h-.94l-11.84,54.58a13.35,13.35,0,0,0-.21,2.24,6.08,6.08,0,0,0,.07,1h-7.37l-9-57.83h-1.3v54.29c0,.43,0,.87,0,1.3A5.51,5.51,0,0,0,843,129a6.08,6.08,0,0,0,.21,1.08H834.3a11.53,11.53,0,0,0,.43-1.16c.1-.33.2-.72.29-1.15a5.5,5.5,0,0,0,.15-1.23V49.8a4.12,4.12,0,0,0-.18-1c-.12-.43-.26-.84-.4-1.22s-.39-1-.58-1.45h18.2l8.23,51h.93l10.19-51h17.32A5,5,0,0,0,888.38,47.12Z" style="fill:#fff"></path></g></g></svg> 