<svg height="92" viewBox="0 0 283 92" width="283" xmlns="http://www.w3.org/2000/svg"><g fill="none" fill-rule="evenodd"><path d="m91.1187884 33.4298533s.5834904-2.7023767.045803-5.3489934c-.0507816-.3574625-.0756745-.4968629-.1214775-.7637151-.0716916-.4172056-.1214775-.6053962-.1214775-.6053962-.1115203-.4938758-.2339936-.996713-.3883298-1.5025374-.5337044-1.7793468-1.3342612-3.5238436-2.1995395-4.8879763-3.7817344.5117987-7.7088435.9947216-11.6259954 1.5025374-8.5860704 1.1649893-16.3456954 1.3302784-18.9763805-1.3302783-2.4803319-2.5111991-.7388223-10.84933586 1.0146359-16.96204445-1.1679764-.90809419-2.641638-1.82813699-4.3592504-2.36084575 0 0-.1652891-.05376874-.524743-.1553319-.359454-.10255889-.7975696-.21706638-.7955782-.21905781-.1533404-.04082441-.309668-.07667023-.4709742-.11251606-2.2423554-.48391861-4.3791648-.4888972-6.1893789-.11948608-.1105246.02190579-.2240364.04082441-.3315738.06571735v.00099571c-.0009958 0-.0029872 0-.0039829.00099572-.5994218 1.46569589-1.8848929 4.85710906-3.6931155 7.98366143-1.8102141 3.12456094-4.1431798 5.98426104-6.8375908 6.38653084-4.632077.6920235-10.7457813-6.47514968-16.8485327-13.71700171h-.0009957c-.0039829-.00398287-.00697-.00896146-.0109529-.01194861-1.5045289.31165952-3.5298179 1.26953958-4.8132975 2.15871514-.0926017.0577516-.183212.11450749-.2688437.17126338 0 0-.3285867.20412205-.7876124.55361882-.1164989.08861884-.2708351.21507494-.2708351.21507494-.8125053.59344752-1.5114989 1.42487148-2.4942719 2.65557808-.88120977 1.10126335-1.50253738 2.27421835-1.57422902 2.60678793h-.00298716c4.50761228 5.19465723 6.37358658 6.88737663 9.69430378 13.56664843 2.5779121 5.1866915-.2479336 6.6892289-3.7658029 8.1061346-2.9742076 1.2097966-13.75384325 2.9423447-13.75384325 2.9423447l-.0059743.0009957c-.5576017 1.651895-.70198071 3.3754817-.45603853 5.4993467 0 0 .05376873.4998501.10056745.7627195.08264453.4829229.10853319.5585974.10853319.5585974.53868306 3.3366487 1.90679865 5.5132868 2.48730185 6.2919377 4.3194217-.4968629 7.60230169-.6910278 10.04280479-.6910278 9.2362738-.0398287 9.4802246 2.6286937 8.9953103 9.8924515-.4032656 6.0270769-4.4727622 16.5697318-5.5381797 18.79516 0 0 .7786509.7487795 1.7634153 1.3611456 1.2804925.7965739 2.6525909 1.3432227 2.7969699 1.395.0059744.0019914.0109529.0039828.0109529.0039828.3514883.1244647.3514883.123469.5546146.190182.204122.0677088.6063918.1881906.6063918.1881906 1.3093683.4550428 3.8454603.9668415 6.7290576.8354068.2160707-.5476445 9.3677085-24.1013375 15.5152672-25.0721619 4.7396144-.7487794 12.1258455 9.1187791 13.5108883 11.0574407 1.560289-.0776659 3.7817343-.5137901 5.519261-1.2476338 0 0 .2728266-.1224732.6521949-.3056852.3793683-.1842077.6741006-.3435224.6741006-.3435224s2.9254175-1.7863169 4.6689185-4.6480085l.1035546-.1662848c.2170664.267848-7.7875051-10.3435114-6.9969056-15.0044642.8722484-5.1329227 21.8022263-9.0570446 28.6338428-10.1732438" fill="#fff"/><path d="m53.9417906 2.35112625c-2.8437686 7.85521385-4.3224088 12.69041715-5.124957 16.33872545-.5058244 2.3708029-.7119379 4.1143039-.6452248 5.610867.1224732 4.2935331 2.7013811 5.5272268 4.9128692 6.0001926 2.2104925.4729657 4.7187044.4610171 7.7148178.3285867 2.9742076-.1433833 6.3277835-.4809315 9.7311453-.8931585 4.8332118-.5924518 14.3562522-2.1119164 18.9873334-2.83182-6.9043038.9250214-14.8202565 1.8789186-21.4786181 1.9715203-2.8816059.038833-5.5282226-.0826446-7.876124-.4819272-2.3399357-.4201927-4.4329335-1.0046788-6.2262204-2.6057922-1.2346894-1.134122-2.0103532-2.5639721-2.4663917-3.9948179-.45803-1.4457815-.6322805-2.9274089-.6531906-4.4349249-.0408244-3.8155887.8832013-7.83729097 1.9077944-11.33624162.3504925-1.16797641.7696895-2.41461448 1.225728-3.67320117.0099572-.02688437.1613062-.44209849.1722591-.46997857z" fill="#a2d39b"/><path d="m50.8170306 17.3583785c.02091 1.507516.1951606 2.9891433.6531905 4.4359206.4560385 1.4298501 1.2317023 2.8597001 2.4663918 3.9938221 1.7942826 1.6011135 3.8862847 2.1865953 6.2262204 2.6057923 2.3479014.3992826 4.994518.5207601 7.8761239.4819271 6.6583617-.091606 14.5753101-1.0464989 21.4786182-1.9715202.4729657-.0597431.94394-.1274519 1.4039614-.1921735-.1105246-.4938758-.2339936-.996713-.3883297-1.5035331-.5327088-1.7793469-1.3342612-3.5238436-2.1995396-4.8869806-3.7817343.5117987-7.7078477.9947216-11.6259953 1.5015417-8.5860704 1.1649893-16.3456955 1.3302783-18.9763806-1.3292826-2.4803318-2.5121948-.7388223-10.85033159 1.0146359-16.96304018-1.1679764-.90709847-2.6406423-1.82813699-4.3592504-2.35985003-.045803.13143468-.1025589.26884367-.1533404.41123125-.4809315 1.28746248-1.0156317 2.79995708-1.5075161 4.4399035-1.0255888 3.49895064-1.9496145 7.52065286-1.90879 11.33624166" fill="#39b54a"/><path d="m22.1090068 78.4983091c2.451456-6.1435758 6.5737257-15.8866697 10.9738005-22.3080507 1.5792077-2.2881584 3.1494539-4.2467343 4.8939506-5.7134259.9698287-.7985653 2.0103533-1.4975589 3.3625374-1.8749357.7816381-.2270236 1.5702462-.3305782 2.3279871-.3305782 2.208501.0109529 3.8255459.6770878 5.6337685 1.6618522 1.8052355.9947216 3.4860064 2.2762098 5.0462954 3.6453211 3.1175909 2.7441969 9.0351389 10.4928691 9.0351389 10.4928691h.0059743s-5.8946465-8.0971732-9.4473659-11.9326763c-1.7902997-1.9187473-3.6512954-3.9589721-5.5431583-5.4057493-.9558886-.7179122-1.9097858-1.3541756-2.9333832-1.8560171-1.0255888-.4739614-2.1437793-.8632869-3.473062-.8712526-.4351284 0-.9080941.0398286-1.4049571.1732548-1.7375267.5028372-2.5540149 1.43682-3.4402033 2.3887258-1.4716702 1.7146252-2.8268415 4.2168628-4.2776016 6.9660383-4.0107493 7.6520876-8.3680083 18.7473656-10.7587256 24.9626331z" fill="#f49ac1"/><path d="m57.8639211 65.3185965c1.5602891-.077666 3.7817344-.5137902 5.5182654-1.2476338 0 0-5.9165523-7.7486722-9.0351389-10.4928691-1.5602891-1.3691113-3.2410599-2.6505995-5.0462954-3.6453211-1.8082226-.9847644-3.4252675-1.6508993-5.6327728-1.6618522-.7587366 0-1.5473447.1035546-2.3279871.3305782-1.3531798.3783726-2.3937044 1.0763704-3.3635331 1.8749357-1.7444967 1.4666916-3.3137472 3.4252675-4.8929549 5.7134259-4.4010705 6.421381-8.5223445 16.1644749-10.9747962 22.3080507 1.3093683.4550429 3.8454603.9668416 6.7290576.8354069.2160707-.5476446 9.3677085-24.1003419 15.5152672-25.0711663 4.7396144-.7487794 12.1258454 9.1177835 13.5108882 11.0564451" fill="#ec008c"/><path d="m70.8875053 32.0252945c10.1075265-2.5550106 17.8093999-3.5308136 20.2409416-3.9390577-3.2121841.387334-15.2643465 2.2144753-26.1355881 4.3702033-10.8712416 2.1636937-16.2311879 4.3881262-13.7438861 11.3541645 2.3289828 6.4910812 12.0212952 17.928886 13.314732 19.4314234-.8951499-1.1739507-5.6845502-7.6052888-7.3284795-11.5094964-5.7552461-12.1895714 3.3983832-17.1233507 13.6522801-19.7072371" fill="#74bde9"/><path d="m91.1187884 33.4298533s.5834904-2.7023767.045803-5.3489934c-.0149357.0029872-.0248929.0039829-.0368415.0049786-2.4315417.4082441-10.1324194 1.3840471-20.2399459 3.9390577-10.2538969 2.5848822-19.4075261 7.5176657-13.6532758 19.7082328 1.644925 3.9032119 6.4343253 10.33455 7.3294752 11.5085007.0856317.1025589.1453747.1802249.1453747.1802249s2.9254175-1.7863169 4.6689185-4.6480085l.1035546-.1662848c.2170664.267848-7.7875051-10.3435114-6.9969056-15.0044642.8722484-5.1329227 21.8022263-9.0570446 28.6338428-10.1732438" fill="#0094d9"/><path d="m14.9960006 4.96737349c.0258887.03186295.105546.1324304.1364133.17126338 1.775364 2.23638108 4.7704816 5.87971073 8.6159419 10.17125233 2.3379443 2.5938436 4.6261026 4.9646466 6.8415737 6.7798392 1.1181905.9031156 2.208501 1.6817666 3.3685116 2.2772055 2.9264132 1.5025374 5.5332012 1.507516 8.2614666-.7069593 1.7136295-1.4268629 2.9144646-3.2669485 4.0406209-5.3450105 1.6618522-3.1175909 3.0568521-6.8415737 4.3502889-10.48390762.7487794-2.14278366 1.4656959-4.25470008 2.1437794-6.16349017-.9021199 2.20551385-1.8460599 4.55341528-2.9343789 6.84157367-1.6289936 3.41531042-3.5377837 6.73005332-6.3944966 9.21138082-1.8978372 1.6518951-4.3134474 2.8826017-7.1353103 3.1693683-.242955.0199143-.4898929.0298715-.7368308.0298715-2.5838865-.0298715-4.8053318-1.0972805-6.9540897-2.4823233-2.1447751-1.4149143-4.2457387-3.2699356-6.3397322-5.3629334-2.3349571-2.3419272-4.8342075-5.20561016-7.1213702-7.9398499-.0199144-.02190578-.0408244-.045803-.0607388-.0687045z" fill="#e9ec9a"/><path d="m28.5991918 18.437736c2.1497537 1.3850428 4.3702033 2.4514561 6.9540898 2.4823233.2469379 0 .4938757-.0099572.7378265-.0308672 2.8208671-.2867666 5.2364773-1.5164775 7.1343145-3.1693683 2.856713-2.4803318 4.7655031-5.7960704 6.3944966-9.21138083 1.0893148-2.28815838 2.0860278-4.61415403 2.934379-6.84157366.1453747-.38036402.1852034-.50283725.3116595-.87025693-.1533405-.04082441-.3086724-.07667024-.4709743-.11351178-2.3797644-.51279441-4.646017-.49288007-6.5249356-.0517773-1.1998393 2.93338321-5.1418842 13.5726227-10.531702 14.3771623-4.6310812.6920235-10.7557384-6.49406832-16.8584898-13.73592035-1.5383833.31862954-3.6234153 1.31335114-4.9009207 2.21945389.0896146.09957174.0398287.05277302.1324304.15931478 2.6505995 3.23707698 5.4943682 6.56078138 8.348094 9.42346868 2.0939935 2.0920021 4.194957 3.9480191 6.3397321 5.3629334" fill="#d7df23"/><path d="m29.5035023 26.8036533c-.8393897-1.9376659-1.9884475-3.7429014-3.1683725-5.4973553-1.1082334-1.6528907-2.2871627-3.2619699-3.4989506-4.8411775-2.5938436-3.3854389-5.3420234-6.65836172-8.1947535-9.82772993-.6651392-.72786936-1.342227-1.46470017-2.0203105-2.18261235-.0189186-.01991435-.0288758-.03086724-.0408244-.04082441 2.9284047 3.21616692 7.7894966 8.83400399 11.2954172 16.34270829.9867559 2.1149036 3.5596894 8.2554922-.96485 12.2582758-4.6699142 4.1332226-13.96991395 5.4565309-22.72027771 6.7330405 4.11231251-.4520556 8.22562074-.9449357 12.31801891-1.5483404 2.9433404-.4311456 5.8876765-.9041113 8.7802353-1.5682548 2.4106316-.5645717 5.0871197-1.2227408 7.0367342-2.81091 1.0255889-.8314239 1.7843254-2.0013918 1.9227302-3.3336615.1274518-1.2944325-.2718309-2.5121948-.7447966-3.6831584" fill="#fdc689"/><path d="m8.46748047 9.63430054c4.50761223 5.19465726 6.37358653 6.88737666 9.69430373 13.56664836 2.5779122 5.1866915-.2479336 6.689229-3.7658028 8.1061347-2.9742077 1.2088008-13.7538433 2.9423447-13.7538433 2.9423447l-.00597431.0009957c-.55760169 1.651895-.7019807 3.3754817-.45603853 5.4993467l.00995718-.0009957c8.75036375-1.2775053 18.05036346-2.6008136 22.72127336-6.7340362 4.5235438-4.0027836 1.951606-10.1433723.9638544-12.2582759-3.5059207-7.5087042-8.3660169-13.12654131-11.2954172-16.34270824-.0189187-.02190578-.0418202-.04182012-.0418202-.04182012-.8125053.59344751-1.5105031 1.42487147-2.4932761 2.65557807-.88120983 1.10126335-1.50253743 2.27421835-1.57422908 2.60678793" fill="#f7931e"/><path d="m29.3085409 41.8006497c-1.3123555-1.3243041-3.1494539-1.9187473-4.9427408-2.2174625-1.7444967-.2768094-3.5278264-.3076767-5.2912418-.2867666-6.2421518.1035546-12.46040647.9280085-18.64580242 1.768394l-.03883298.0059743c5.32708763-.662152 9.39060999-.94394 12.529111-.94394 3.349593.0059743 5.7144216.3076766 7.6212203.9529014.1364133.0438116.2688437.0896146.3992826.1364133.0726874.0248929.1423876.0517773.2130835.0776659.0358459.0139401.070696.0268844.1045504.0408245 4.5763167 1.7624196 5.8179762 5.4784366 5.8886721 9.9940146-.0199143 4.3702033-1.179925 9.8466486-2.6665309 15.3748711-1.088319 4.0197108-2.3628372 8.0284687-3.5308136 11.4168947 1.5702462-4.1152997 3.2111883-8.2076978 4.69879-12.3498818 1.5762205-4.4110277 3.1076337-8.8300212 4.2059099-13.3953851.4769486-1.9804817.8871842-4.0007921.9170557-6.0420126.0268843-1.6140578-.3007067-3.3326659-1.461713-4.5325052" fill="#f69679"/><path d="m27.1454446 51.3284695c-.070696-4.515578-1.3123555-8.231595-5.8886722-9.9940147-.0338544-.0129443-.0687045-.0268844-.1045504-.0408244-.0697002-.0258886-.1403961-.0517773-.2120877-.0776659-.1314347-.0467988-.2638651-.0926018-.4002784-.1354176-1.9067987-.6452248-4.2706316-.9479229-7.6212203-.9538972-3.138501 0-7.20202336.281788-12.52911099.94394.53768735 3.3376445 1.90580294 5.5132868 2.48630614 6.2929334 4.32041742-.4968629 7.60230165-.6920235 10.04280485-.6920235 9.2362738-.0398287 9.4812202 2.6286937 8.9963059 9.8934472-.4032655 6.0260812-4.4727622 16.5687362-5.5391754 18.7941644 0 0 .7786509.7487794 1.7644111 1.3611455 1.2804924.7965739 2.6525909 1.3432227 2.7969699 1.3959957.0059743.0019914.0109529.0039829.0109529.0039829 1.1689721-3.3884261 2.4424946-7.397184 3.5308136-11.4168948 1.4866059-5.5282225 2.6466166-11.0046677 2.666531-15.374871" fill="#ed1c24"/><g fill="#0094d9"><path d="m155.174379 52.7014641-.005975 6.1744431h-3.592548l.010953-6.8604923c.012944-.6701178-.022901-1.2685439-.12546-1.7673983-.196157-.9738115-.760728-1.5732333-2.076071-1.5732333-.540674 0-1.11819.0995717-1.718608.3285867l-.010953 9.8725372h-3.610471v-11.8380832c1.719604-.5805032 3.562677-1.0893147 5.696499-1.0893147 3.001092 0 4.764507 1.7693896 5.260374 4.2069056.112516.5775161.166285 1.4437901.17226 2.5460492"/><path d="m243.850573 52.7014641-.003983 6.1744431h-3.599518l.011948-6.8604923c.008962-.6701178-.011948-1.2685439-.116498-1.7673983-.197153-.9738115-.772677-1.5732333-2.075075-1.5732333-.553619 0-1.126157.0995717-1.724583.3285867l-.018918 9.8725372h-3.609476l.00697-11.8380832c1.712634-.5805032 3.562677-1.0893147 5.697495-1.0893147 2.993126 0 4.767494 1.7693896 5.251413 4.2069056.117495.5775161.176242 1.4437901.180225 2.5460492"/><path d="m137.420639 48.636946c-1.545353 0-3.189282 1.9595717-2.658565 5.1080298.322612 1.9137687 1.40894 2.536092 2.111916 2.536092.577516 0 1.059444-.1951606 1.474658-.5655674l-.010953-7.0227942c-.241959-.0238972-.610375-.0557602-.917056-.0557602zm4.561381 10.2389612h-2.733244s-.231006-.3833512-.356467-.8652784c-.265856.2091007-1.096284 1.0206103-2.746188 1.0206103-2.271231 0-4.398083-2.1049464-4.980578-4.9626551-1.086328-5.3808564 2.814893-8.0971732 6.561777-8.0971732 1.498555 0 3.285867.380364 4.242752.6591648z"/><path d="m187.682956 48.636946c-1.544358 0-3.19227 1.9595717-2.651596 5.1080298.310664 1.9137687 1.405953 2.536092 2.107934 2.536092.565567 0 1.06243-.1951606 1.47864-.5655674l-.017923-7.0227942c-.246938-.0238972-.605396-.0557602-.917055-.0557602zm4.555406 10.2389612h-2.732248s-.231006-.3833512-.344518-.8652784c-.277805.2091007-1.109229 1.0206103-2.746188 1.0206103-2.279197 0-4.408041-2.1049464-4.987548-4.9626551-1.089315-5.3808564 2.806927-8.0971732 6.566755-8.0971732 1.497559 0 3.288854.4132227 4.243747.6920235z"/><path d="m251.766725 48.636946c-1.545354 0-3.183309 1.9595717-2.652591 5.1080298.324604 1.9137687 1.407944 2.536092 2.122869 2.536092.564572 0 1.049486-.1951606 1.4647-.5655674l-.009957-7.0227942c-.244946-.0238972-.613362-.0557602-.925021-.0557602zm4.560385 10.2389612h-2.738223s-.219058-.3833512-.347505-.8652784c-.275814.2091007-1.100268 1.0206103-2.74121 1.0206103-2.279197 0-4.407045-2.1049464-4.982569-4.9626551-1.095289-5.3808564 2.805931-8.0971732 6.560781-8.0971732 1.487602 0 3.284872.380364 4.244743.6591648z"/><path d="m212.961928 52.7170969.010953 6.1585115h-3.60848v-6.8385865c.008962-.6800749 0-1.2904496-.091606-1.796274-.197152-.9250214-.75077-1.5712419-2.104946-1.5712419-.54864 0-1.512495.1742505-2.105942.5237473.036842.0776659.411231 1.257591.411231 2.7163168l.009957 6.9660383h-3.638351l.004979-6.8604922c.007966-.7049679-.02788-1.3193255-.13243-1.8221627-.185204-.9459315-.761724-1.5234475-2.041221-1.5234475-.564572 0-1.119186.105546-1.717612.3305781l-.010953 9.8755243h-3.610471v-11.8530189c1.458726-.531713 3.610471-1.0733832 5.697494-1.0733832 1.348201 0 2.445482.3455139 3.285867.9668415 1.063426-.5227516 2.515182-.9668415 4.208897-.9668415 2.987152 0 4.750568 1.7683939 5.247431 4.2069056.115503.6034047.196156 1.4776445.185203 2.560985"/><path d="m221.909842 53.7453741c-.518769 3.4700749-3.29682 2.719304-3.625407 2.4673875v-7.5206528c.247934-.0338544.657174-.0627302.962859-.0627302 1.545353 0 3.147463 1.9436402 2.662548 5.1159955m-2.963255-7.7745608c-1.49955 0-3.285867.2768095-4.241755.542666v18.2544855h3.609475l-.029872-6.1356101c.375386.1394004 1.389026.3992827 2.023298.3992827 2.785021 0 4.579304-2.0053747 5.102056-4.6071841 1.19486-5.9553852-2.830825-8.45364-6.463202-8.45364"/><path d="m124.026648 54.8154715c-.335557-1.6150535-1.5344-2.6396466-2.847751-3.3605459-1.384047-.7667023-2.270236-1.1819165-2.38773-1.7255781-.091606-.4829229.148361-1.3362526 1.199839-1.3601499.973811-.0229015 1.647912.2419593 2.916456.9469272v-2.6635438c-1.407944-.5337045-2.242355-.7039722-3.33167-.7039722-2.410632 0-4.416006 1.3372484-3.887281 3.9679335.299711 1.4876017 1.153041 2.3060813 2.249326 3.0319593 1.210792.7696894 2.565963 1.4527515 2.746188 2.35288.137409.6910278-.273822 1.6250106-1.859004 1.6250106-.966842 0-2.017323-.5755246-2.895546-1.0385331v2.7690898c.912077.3445182 1.961563.5914561 3.242056.5914561 3.182312 0 5.478436-1.3412312 4.855117-4.4329335"/><path d="m97.8029392 46.1277384c-2.9761991 0-4.6828586.5954389-6.1356101 1.0893147l.0348501 11.6588541h3.6084795l-.02091-9.7669912c.5984261-.2310064 1.606092-.3255995 2.1547322-.3255995.1961564 0 .3684154.0238972.542666.0477944v-2.6993896c-.0697002 0-.1274518-.0039829-.1842077-.0039829"/><path d="m102.957071 58.8756084h-3.5288225l.0238973-12.70834s.4580299-.1394005 1.7514672-.1493576c1.465695-.0159315 1.775363.1493576 1.775363.1493576z"/><path d="m130.413179 56.0727638c-.112516.0229015-.251916.0229015-.424176.0229015-.733843 0-1.08334-.3435225-1.08334-1.5453533v-12.4424836s-.3256-.1732548-1.81121-.1623019c-1.326295.0129444-1.787312.1623019-1.787312.1623019h-.011949v12.5988112c0 3.9161562 2.250321 4.561381 3.769786 4.561381.912077 0 1.545353-.1274518 2.110921-.3007066z"/><path d="m230.604844 58.8756084h-3.528822l.023897-12.4902779s.472966-.2529122 1.757441-.2578908c1.460717-.0159315 1.771381.2578908 1.771381.2578908z"/><path d="m180.140198 55.8068077c-.701981.2190578-1.657869.4978586-2.548041.4978586-2.500246 0-3.437216-2.4912847-3.437216-5.6397428 0-2.9652462.727869-5.6755887 3.298812-5.6755887.761723 0 1.753458.151349 2.571937.93697l1.833116-2.423576c-.963854-.96485-2.28318-1.5204603-4.405053-1.5204603-3.972913 0-7.218951 2.588865-7.218951 8.682655 0 6.2252246 2.963255 8.6946036 7.281681 8.6946036 1.194861 0 3.120578-.3923127 4.043608-.7607281z"/><path d="m162.621846 56.417979c-.735835 0-1.774368-.6223233-2.105942-2.5589935-.336552-1.9944218.137409-4.0207065 1.393009-4.9477194.783629-.5347002 1.672805-.3783725 2.341927-.1822162l.010953 7.0337471c-.461018.426167-1.060439.655182-1.639947.655182m3.406349-14.4727512c-1.315342.0139401-1.777355.1623019-1.777355.1623019l.010953 3.9569806c-.287763-.0248929-.680075-.1155032-.980782-.1155032-3.689133 0-7.518661 2.3628372-6.319818 8.2684366.589465 2.8925588 2.69939 4.9865523 5.224529 4.9865523.900128 0 1.822163-.4321413 2.605792-1.0315631l.34651.7029764h2.756145v-16.7678796s-.374389-.1732548-1.865974-.1623019"/><path d="m110.019494 48.4148015c.017923-.0049786.028876 0 .028876 0h.01394c.932987-.0726874 1.70666 1.0156316 1.76242 2.6177408l-.016927.7497751h-3.937066s-.29075-3.2281155 2.148757-3.3675159zm1.195857 5.5322054c.702976 0 1.694711-.0189186 2.31803-.0627302l.799561-.0368415c0-.045803.253908-1.1301392.232002-2.3598501-.064722-4.3054816-2.139796-5.4694752-4.709743-5.5391754h-.01394-.004979.004979-.022901c-3.170364.045803-5.487399 1.9545931-5.476484 6.5966272v.0567559c.125499 4.7983617 2.260317 6.6085758 5.662683 6.6752889.032858 0 .032858.0129443.032858.0129443.809519 0 2.387731-.1384047 3.952002-.9210385v-2.6525909c-1.461713.6551819-2.128843 1.0006959-3.628393.9210385-2.835803-.1473662-2.558994-2.6904282-2.558994-2.6904282z"/><path d="m84.8863946 45.0473851c.5307173-.4381156 1.7773554-.6113704 2.9652462-.6113704 2.7312526 0 3.7707814.5904603 3.7707814.5904603l.7945825-2.7113382s-2.064122-1.0703961-6.238169-.6970021c-3.9091862.3504925-5.1199785 1.3850428-5.1199785 1.3850428v15.9633399h3.8175802l.0099572-7.1243573h3.1882868 2.3240043v-2.9523019h-2.3240043-3.1882868v-2.3578586z"/><path d="m273.471271 43.6885297c0 1.035546-.843373 1.8649785-1.868961 1.8649785-1.038534 0-1.867966-.8294325-1.867966-1.8649785 0-1.0275803.829432-1.8689614 1.867966-1.8689614 1.025588 0 1.868961.8413811 1.868961 1.8689614"/><path d="m282.316029 48.9801698c0-1.1858993-.461017-1.9944218-1.135118-2.4434903-.674101-.4381156-1.50652-.5347002-2.278201-.5347002-.30469 0-.599422.0159315-.877227.0378373-1.522452.1214775-2.882602.4739614-3.505921.7258779v8.513383h2.767099v-6.3885223c.542666-.1065417.980781-.1613062 1.305385-.1613062.379368 0 .610375.0726874.703972.1613062.101563.0796574.159315.1931692.172259.4938758 0 .2608779-.070696.6332762-.21607 1.1082334-.199144.6561777-.453052 1.384047-.70696 2.0631263v2.7232868h1.913769c.021906-.0716916 1.417901-3.6692183 1.647912-4.7187043.138405-.588469.209101-1.1112206.209101-1.5802034"/><path d="m263.253419 58.8639586h16.688222v-.345514-2.0760706h-16.688222z"/><path d="m273.100765 46.8195628s-.34651-.0965846-1.498555-.0965846c-.879218 0-1.510503.0965846-1.510503.0965846v8.4596143h3.009058z"/><path d="m264.660467 52.5560894c-.254903-.680075-.505824-1.4079443-.714925-2.064122-.138405-.4739615-.208105-.8463597-.208105-1.1082334.004979-.2997109.0697-.4142184.160311-.4938758.10455-.0876231.335557-.1613062.715921-.1613062.323608 0 .762719.0547645 1.291445.1613062v6.3885223h2.781038v-8.5123873c-.624314-.2519165-1.983469-.6044004-3.506916-.7258779-.277805-.0219058-.577516-.0378373-.875236-.0378373-.773672 0-1.605096.0965846-2.285171.5347002-.679079.4490685-1.130139 1.2565953-1.130139 2.4434903 0 .4689828.068705.9907387.207109 1.5802034.232002 1.049486 1.626007 4.6470127 1.6509 4.7177086h1.913768z"/><g transform="translate(130.085649 69.331636)"><path d="m1.19738859 5.83619789c.41720556.06073876.63725909.40724838.54664881.89514987-.08961456.48790148-.21507494 2.93836179.35248393 4.43890774.88519269-1.96853309 1.78631686-3.69311547 2.25330828-4.35925036.46300855-.66115629.99571731-1.33326548 1.72159524-1.18390788.73882224.15134903 1.02459311.76670233 1.15403636 1.52145605.12944325.75674516.34650963 4.46479639.37837258 5.39180929.01891863.5864775.10853319.8553211.4371199 1.1739507.17126338.1662848.22503212.5366916-.08961455.7457923-.36841541.2439507-.93497856.0288758-1.16399354-.3783726-.22801927-.4072484-.30070663-.7965739-.33655246-1.4417987-.05874732-1.0793576-.12944325-3.26296564-.46798713-4.58527823-.09957174-.38832975-.25689507-.57452889-.4082441-.5864775-.15433619-.01294432-.3216167.2011349-.53868307.53669163-.6153533.95489291-1.55033186 2.9134689-1.87891857 3.7199999-.23698072.5805032-.47794431 1.1430835-1.12416485 1.1430835s-1.01762309-.4948715-1.25261238-1.2824839c-.43811562-1.4627088-.80653102-3.22313698-.44807279-5.1219699.09957173-.53270876.51578157-.67808349.86527834-.62730191"/><path d="m9.11642797 8.63087768c-.63526765 2.03225902-.45006423 4.29851162 1.45076013 4.94373642 2.0501819.6960064 3.8803104-.7846252 4.5862739-2.6754924.9110814-2.43751596-.0995717-4.28656302-1.6718093-4.6649356-.4590257-.11152034-.6462206.22304068-.6930193.41620984-.0487901.19316916.0935974.39629549.47197.5406745.6860493.25988222 1.3701071 1.30239825.732848 3.21218406-.6352677 1.9107815-2.0531691 2.5121948-2.9214346 2.1746466-.8364026-.3255995-1.10922912-1.8082226-.6392505-3.35058875.5655674-1.84805134 1.3133511-2.63466801 2.0362419-2.88658449.591456-.20312634.7776552-.96385436.2270235-1.09130618-.327591-.07667023-.7905995-.02091006-1.2834796.27880085-.8095182.49088863-1.76341537 1.39798711-2.29612413 3.10265515"/><path d="m16.6231408 5.42098377c-.8214668.06571735-.6910278.75375801-.556606 1.30638112.503833 2.04619908 1.4876017 5.44259081 3.2291113 5.73433601 1.186895.1981477 2.0910063-2.1686723 2.7163168-3.617441.0736831 1.349197.2300107 2.9781905.3903212 3.8126016.0617345.3246038.1672805.616349.4351285.7049679.3465096.1164989.9150642.1662847.7796466-.6292934-.1334261-.7965738-.3305781-2.3877301-.3594539-3.42427183-.0169272-.61236615.0248929-1.60609203.0786616-2.65557808.0308673-.61236615-.0826445-1.13013915-.5436616-1.17096356-.6034047-.05376874-.7955782.50881155-.9459315 1.12516056-.556606 1.63596355-1.6349678 3.37747313-2.0262847 3.93308341-.5745289.8164882-.739818.6880406-1.0962848-.0896146-.2399678-.52573871-1.0514775-2.7103425-1.1560278-3.9928264-.0746788-.93199141-.570546-1.06641325-.9449357-1.03654173"/><path d="m25.8520463 5.06800199c-.4938758 0-.6014133.31165951-.5416702.845364.059743.53171304.4819272 3.82753735.5824946 4.97360801.1005675 1.1460706.2409636 1.528426.3714026 1.7484796.1304389.2210492.3524839.3913169.7129336.4321413.3624411.0398287.609379-.0806531.6432333-.6332762.0607388-.9548929.3385439-2.2294111.8344112-3.71800848.4829229-1.44677725 1.0116487-2.13581363 1.377077-2.12087787.4630085.02091006.3923126.31165951.3126552.68405779-.0497858.22602783-.0617344.38932547.2997109.38135973.3305782-.00697002.6591649-.24892933.9051071-.91406849.3017023-.81449677.2310064-1.69968946-.542666-1.8689614-.8354068-.18520342-1.6877408.27083511-2.261274 1.12416485-.5715417.85532117-1.1759421 2.42258022-1.4567344 4.07049237-.2509208-1.49755883-.2001392-3.48700203-.4819272-4.371199-.1095289-.34153104-.2618736-.63327621-.7547537-.63327621"/><path d="m34.0569561 5.65826321c-.6741006-.05476445-.9389614.31365095-.9250214 1.08732331.0179229 1.0066702.1075375 3.66523538.6731049 5.17573858.3156424.8433726.8553212.9787901 1.3661242.8533298.440107-.1075375.3116595-.4221842.1354175-.673105-.2788008-.3962954-.4321413-1.0803532-.5307173-2.4355245-.1075375-1.49158454-.0537687-2.6685224-.0348501-3.15542817.0169272-.48391861-.1284475-.80752674-.6840578-.85233402"/><path d="m33.3179347 2.58269157c-.1105246.48391861.4201927.64024623.8403854.609379.398287-.03086724.7597323-.16130621.7985653-.41521412.0368416-.2529122-.3056852-.60838328-.8025481-.64124195-.5745289-.03684155-.7776553.19615631-.8364026.44707707"/><path d="m38.3986819 3.53848062c-1.5363918.05974304-2.2224411.79159526-2.2224411 1.65687361s.6711135 1.71562093 2.0740792 2.99810483c1.40197 1.28347962 2.4604175 2.08801924 2.3578586 3.19326544-.105546 1.1042505-1.3581584 2.4474731-2.5072162 2.4474731-.6870449 0-1.0295717-.5376873-1.2386723-.8513383-.2091007-.3126552-.6113705-.2091006-.5974304.1941649.0229015.6123662.2987152.9698287.5824946 1.2685439.3604497.3793683 1.1420878.5984261 2.2383725.1931691.9698287-.3574625 2.863683-1.7305567 2.863683-3.4899891 0-1.0455032-.700985-1.88091006-2.0880192-3.16339396-.7228908-.66912203-1.6986937-1.57920766-2.0442076-2.08901492-.3435225-.50781583-.2170664-1.03753744.2539079-1.1789293.6412419-.19516059 1.3730942.01394004 1.5811991.70098499.1364133.45105994.3654282.61137043.8503426.50682011.4182012-.08861884.7109421-.66613488.3584582-1.3282869-.3584582-.67011775-1.1460706-1.1102248-2.4624089-1.0584475"/><path d="m43.9694215.94224729c.556606 0 .9359743.55361883.8144968 1.19286935-.3972912 2.10793355-.7019807 5.04430391-.3813597 8.18081346 1.377077-3.10663803 2.2264239-4.31444313 3.3466059-4.18101701 1.2625695.15035331 2.2035224 2.87463588 1.6250106 7.97768711-.0497858.4470771-.2638651.6960064-.6243147.6960064-.2788009 0-.5685546-.176242-.549636-.7159207.0836403-2.5918522.1354176-4.11131683-.334561-5.78611335-.2230407-.79557813-.6701178-.72986079-1.0713918-.18719486-.5267345.71392932-1.1789293 1.93766591-1.8908672 3.60549241-.2369807.556606-.5944433.5894646-.8154925.5765203-.3385439-.0199143-.595439-.1981477-.7159207-.8941541-.1652891-.9658458-.4251713-6.03902554 0-9.45035306.0786616-.63725908.1792291-1.01463595.5974303-1.01463595"/><path d="m51.8068121 5.98983707c-.524743-.06770877-.746788.18321199-.7985653.98476443-.1344218 2.13979651.1364133 5.2314988.4769486 6.3686079.2708351.9080942.8304282.9947216 1.1888865.8822056.2718308-.0836403.3395396-.3046895.2031263-.6113705-.4779443-1.0773661-.4590257-3.599518-.2718308-6.46917534.0537687-.82047107-.4241756-1.10624194-.7985653-1.15503209"/><path d="m52.8774073 2.69540677c-.6601605-.21308351-.9329871.03285867-1.0016916.32161669-.0816488.34252676.2369807.64622054.6611563.7477837.426167.10255889.9180514.08463598 1.0206103-.20312633.1015631-.28875802-.2041221-.71492503-.680075-.86627406"/><path d="m55.4172831 6.53051158c-.5645717-.16728051-.8254497-.04381157-.884197.52275159-.1394004 1.36413272-.0348501 3.43920763.1662848 4.65199133.0856317.5207601.2758137.7447965.7179122 1.0216059.4411027.274818 1.0674089.3494968 1.3930085-.0288758.4182013-.4869057 1.6001177-2.94632751 2.7352355-4.58826536.3186295-.46201284.6273019-.42317986.6601605.07567451.1105247 1.75544963.0517773 3.43920765-.0975803 5.45155225-.066713.9041114.3584583 1.2137795.5526231 1.3243041.1931692.1105246.4411028.165289.6332763-.0149358.1941648-.1782334.3186295-.2897537.1244646-.5645717-.1921734-.2758137-.2061135-1.2834796-.165289-2.0840363.0408244-.8005568.3365524-2.96325477.3365524-4.2188543 0-1.25261238-.0059743-1.94861878-.7915953-2.01732328-.7866166-.06970021-1.2914453.36741969-1.9844646 1.23966806-.760728.95987149-2.0372376 3.28288002-2.595835 3.83550312-.2031263.2011349-.2529122.1553319-.2907495-.0657174-.1155032-.6790792-.1523447-3.05087782 0-3.71302984.1523448-.66215201-.137409-.71791218-.5098072-.82744108"/><path d="m68.5823587 6.26893664c0 .52175587-.2648608.34451819-.9538972.56258028-1.6648394.52872589-4.1033511 2.33097423-3.2082012 4.30149878.8174839 1.7962741 1.9396573 1.0255889 2.9831691-.1792291.5824946-.6721092.8364025-.9548929.9409528-1.13412202.1045504-.1782334.1652891-.41620984.1483619-.64124195-.0298715-.41720555.0866274-.7647109.5526231-.74877942.5366917.01792291.8812099.15134903.9260171.73284794.0438116.58349035.1782334 1.92571725.3415311 3.98386495.1642933 2.0611349 1.2695396 7.3862311-1.028576 8.774261-.9489186.5725375-1.88091.3524839-2.1039507.0687045-.2240364-.2837794-.1085332-.5964347.2539079-.5018415.6860493.1792291 1.2844754-.0866274 1.6708137-1.0295717.4311456-1.0504818.4769486-2.2075053.3285867-3.8484475-.1493576-1.6419378-.45803-4.4359206-.5814989-5.5809955-.8662741 1.3272912-1.7315524 2.0143361-3.1046466 2.0143361-1.7743683 0-2.8168843-1.3581584-2.8168843-2.7899999 0-1.43184149 1.9814775-3.84944312 3.8016487-4.25370435 1.3581584-.2987152 1.8500428.07667023 1.8500428.26983939"/><path d="m76.3614002 1.09877406c-.0587473-.61037472.1782334-.96485008.6362634-.96485008.4570342 0 .8493468.31763382.8881798.81350104.2797966 3.5308136.4401071 5.58796557.9728158 8.30527812.9558886-1.63795498 2.377773-3.21417549 4.3234046-3.52782644.3933083-.06372591 1.3571627.12446466 1.6499036.40226979.7497751.70994645.8254496 2.72328686.1214775 4.37816901-.5536188 1.3004068-1.4129229 2.5321092-2.8377943 2.7312526-.694015.0965846-.9548929-.1543362-1.1112206-.4391113-.1692719-.3096681-.0149357-.5376874.2598823-.4221842.3962954.1672805.8792183.2100964 1.4119271-.2588865.968833-.8513383 1.6678265-2.94334034 1.1908779-4.92183065-.1274518-.52972161-.4450856-.55959313-1.0644218-.28377943-.5327088.23698072-2.6605567 1.33824407-3.5835866 4.48769798-.1563276.5356959-.405257.7637151-.8931584.7637151-.4869058 0-.6561777-.3674197-.5675589-.8154924.0906103-.4470771-.0428159-1.53141328-.1921734-2.49626335-.1483619-.9658458-.9708244-5.31215187-1.204818-7.75165929"/><path d="m87.0886611 7.2091925c-.5426659-.12745182-.6312848.55262311-.570546 1.37209846.0587473.82146678.5207601 3.02897204.8045396 3.56665944.2847751.5366916.4679871.6920235 1.0305674.9250214.3524839.1453747 1.0684047.3206209 1.6110706-.4032656.5197645-.6950106 1.5214561-2.2642611 2.2244325-3.87931461-.5446574 2.71233401-1.0126445 4.54544951-1.3123554 6.07287991-.3116595 1.5792077-.4460814 3.0757708-.1364133 5.6098713.0746788.6113705.0886188.7617238.0298715 1.074379-.059743.3126553.1941649.4779443.4769486.5516274.2847752.0746788.4470771.0258887.5834904-.5665631.0726873-.327591-.1115204-.8602998-.2110921-1.7902998-.1035546-.9698286-.3445182-2.2035224.1802248-4.6559741.5506317-2.5799036 1.5811991-5.44557802 1.6996895-7.25081351.1204818-1.80623121-.3126553-1.90978581-.7298608-1.95459309-.419197-.04480728-.7019807.18022483-.9698287 1.29841538-.6123661 1.62700209-1.4925802 3.09568512-2.2393682 4.17006412-.6960064 1.0026873-1.1400963.9558886-1.3860385-.1264561-.2250321-.9847644-.4182013-2.26824405-.4630086-2.96922904-.0448072-.70098499-.2987152-.96883295-.6223233-1.04450746"/><path d="m99.9931575 5.86736385c.5735335.1384047.6123665.70994644.5705465 1.59215198-.011949 1.17992502.087623 2.78103847.233993 3.88130607 1.03455-2.12286929 2.487302-4.57830819 3.13651-5.26137027.251916-.26685224.58349-.37239827 1.272526-.18619913.982773.26585652 1.194861.46499998 1.23469.99571731.052773.71791218.091606 2.78502133.185203 4.31046029.093598 1.5274303.226028 2.2951284.372399 3.1574196.126456.753758-.041821.9997001-.624315.8632869-.644229-.1523448-.820471-.2439508-.884197-1.0753747-.065718-.8881799-.209101-5.27132748-.530718-6.80473215-.096584-.46997857-.217066-.47794431-.561584-.04082441-.345514.43911134-1.928705 2.32997852-3.011049 5.89066366-.093598.3046895-.45106.5546145-1.021606.3046895-.5177732-.2240364-.5446576-.2778052-.7029766-.9947216-.1015632-.4550428-.373394-3.71701276-.3056853-5.63874718.0278801-.74380083.2011349-1.09827619.6362634-.99372587"/><path d="m112.751682 6.69390879c-2.542067.9837687-4.334358 3.29582431-3.851435 4.18699131.40227.7438008 3.1156-.5028373 4.13621-1.42387577 0-.91108134-.035846-1.6797751.637259-1.55431472.674101.12446466.697998.34750534.823458.58548178-.050781 1.12217341.074679 4.31344741.510803 5.68355441-.012944.6611563-.656178.8921627-1.072387.1354176-.473962-.8593041-.663148-2.5599892-.761724-3.4999464-1.758437 1.1958565-4.099368 2.1059421-5.085128.9469272-.983769-1.159015-.535696-2.86766589 1.098276-4.41301916 1.63198-1.54435755 2.666531-1.63198068 3.140492-1.59513914.473962.03684155.873244.41123126.424176.94792289"/><path d="m117.045713.66513917c-.518769-.10056745-.941949.10853318-.896146 1.14109204.046799 1.03255885.770685 9.46031019 1.018619 11.10722659.123469.8154925.338544 1.5085118.831424 1.5085118.617345 0 1.40197-1.0166274 1.40197-2.4494646 0-.9618629-.738822-.4769486-1.047495-.260878-.43015-2.89654162-.64622-7.28765497-.64622-9.02816884 0-1.63297639-.108534-1.90978581-.662152-2.01831899"/><path d="m115.350902 4.47007374c-.696006-.01991435-.862291.3395396-.708951.74081368.154337.39928264.708951.58448606 1.355172.55361883.648212-.02987152 2.002387-.23100642 3.097676-.49188436 1.093298-.26286937 2.541071-.44807279 3.188287-.53967878.646221-.09359743 1.028576-.30767665.801553-.58548178-.139401-.16927194-.369412-.36941113-.538683-.49288007-1.787313.13740899-3.651296.32360813-5.191671.56855458-.684057.10952891-1.463704.26286938-2.003383.2469379"/><path d="m121.260982 6.30000302c-.852334 0-.850342.44408992-.813501 1.1102248.036842.6671306.465 3.49695918 1.373094 4.90390778.908095 1.4059528 2.209497 1.3412312 3.120579.2588865.459025-.5456531.904111-1.218758 1.219753-1.9018201.166285 1.461713.394304 2.5161777.710942 3.0518736.313651.5376873 1.034551.4550428 1.146071-.295728.056756-.3704069-.222045-.6292934-.313651-.7587366-.333565-1.8699572-.481927-2.90649888-.223041-5.33206626.124465-1.1560278-.05576-1.45673443-.43712-1.54634899-.6044-.14139186-.756745.60440041-.823458 1.83610273-.626306 2.32798708-1.461713 3.58159522-2.223436 4.28955022-.45803.426167-.85333.4630085-1.207806-.2688437-.352484-.7288651-.641242-2.300107-.805535-3.66224829-.150353-1.23867234-.092602-1.68475369-.722891-1.68475369"/><path d="m130.933281 13.4684707c-.796574-2.5898608-1.127152-5.6058885-1.16499-7.4459741-.00697-.32460384.217067-.49288007.480932-.50383296.262869-.01194861.563576.01095289.671113.46798714.108534.45603853.300707 1.57323336.433137 2.41361877.515782-1.39201281 1.21378-2.87065302 3.025985-2.97719477.8603-.05277302 1.320322.20013918 1.320322 1.34521409 0 1.05546035-.3953 2.06511771-1.271531 1.89684148-.26984-.0517773-.258887-.28278371-.181221-.50482867.072687-.20412205.421188-1.500546-.217066-1.62102779-.634272-.11948608-1.608084 1.2247323-2.003384 3.37548169-.102559.83640252-.11152 1.36711992.120482 3.10962522.120482.9210385.042816 1.0345502-.40924 1.0076659-.360449-.0199144-.668126-.1204818-.804539-.563576"/><path d="m142.09328 6.68415076c-1.311359-1.05745179-3.134518-.29274089-4.48471 1.04251603-1.530418 1.51448603-1.78333 3.44119901-.945932 4.78342601.942944 1.5124946 3.174347 1.89485 5.00348 1.2297108.347505-.1254603.706959-.7637151.599422-.9777944-.142388-.2847751-.463009-.1642933-.836403-.0328586-1.81121.6342719-3.405353.0418201-3.776756-1.2227409-.401274-1.3641327.036842-2.11291213.937966-3.08074936.585482-.62929334 2.105942-1.59812629 2.633672-1.10922909.427163.39330834.031863 1.35616698-1.168972 1.95758024-1.198844.59942183-2.651595 1.02558881-4.260674.58349035-.536692.22005356-.379369.56855456-.189187.89913276.189187.3315738 1.198844.584486 2.746189.3793683 1.672805-.2210493 3.788704-1.34222697 4.229807-2.46340467.344518-.87125265.031863-1.56725905-.487902-1.98844747"/></g></g></g></svg>