<svg xmlns="http://www.w3.org/2000/svg" xmlns:xlink="http://www.w3.org/1999/xlink" height="106" viewBox="0 0 170 106" width="170"><filter id="a" height="141%" width="140.6%" x="-20.3%" y="-20.5%"><feGaussianBlur in="SourceGraphic" stdDeviation="4.82519696"/></filter><filter id="b" height="153.2%" width="170.5%" x="-35.2%" y="-26.6%"><feGaussianBlur in="SourceGraphic" stdDeviation="9.65039391"/></filter><filter id="c" height="158.3%" width="159.7%" x="-29.9%" y="-29.2%"><feGaussianBlur in="SourceGraphic" stdDeviation="4.82519696"/></filter><filter id="d" height="153.3%" width="170.4%" x="-35.2%" y="-26.6%"><feGaussianBlur in="SourceGraphic" stdDeviation="9.65039391"/></filter><filter id="e" height="159.2%" width="158.7%" x="-29.3%" y="-29.6%"><feGaussianBlur in="SourceGraphic" stdDeviation="4.82519696"/></filter><filter id="f" height="192.6%" width="191.8%" x="-45.9%" y="-46.3%"><feGaussianBlur in="SourceGraphic" stdDeviation="9.65039391"/></filter><mask id="g" fill="#fff"><path d="m68.9624194 1.03825641c-.682742.32071795-1.7 2.30753846-1.5025807 4.65041026-.466129 3.09574359 2.6679032 6.74323073 1.2174194 10.04553843-.2083871.4593334.5456451 3.8431795.9596774 5.7865128h-12.2016129l-5.058871 34.7843077 4.0279032 1.2176411c1.7356452-1.9188718 3.7153226-3.4572308 5.908871-4.6504103 2.1853226-1.1741538 4.9025807-1.7639487 8.1380645-1.7639487 4.1814516 0 7.5896774 1.4269231 10.2219355 4.2698974 2.6240323 2.8456923 3.9374194 6.5040513 3.9374194 10.9424616 0 3.0522564-.4085484 5.7892307-1.2009678 8.1973333-.806129 2.4108205-1.9769355 4.4982051-3.5480645 6.2621538-1.3545161 1.541077-2.9969355 2.7179488-4.9053226 3.5197436-1.9056451.7936411-3.8524193 1.2013334-5.8348387 1.2013334-.9733871 0-2.0153226-.0706667-3.1340322-.2092821-1.107742-.1440513-2.0783871-.3533333-2.9119355-.6441538.381129-.9675898.8609677-2.3836411 1.4532258-4.2454359.595-1.8645128.891129-3.5741026.891129-5.1586667 0-2.226-.8774193-4.0198461-2.6432258-5.3625128-1.7493548-1.3317949-3.9977419-2.0058462-6.7506452-2.0058462-2.632258 0-4.7517742.7746154-6.3366129 2.3102564-1.5848387 1.5546667-2.3745161 3.4354872-2.3745161 5.6777949 0 3.7806667 2.3882258 7.0557949 7.1509678 9.8335385 4.7654838 2.7750256 10.7127419 4.1448718 17.8362903 4.1448718 9.2183871 0 16.7751613-2.1825128 22.7087097-6.5828718 5.9253225-4.397641 8.8948385-10.0591282 8.8948385-16.9953334 0-.7664615-.060322-1.4975897-.126129-2.226.575807.6577436 1.209194 1.2910257 1.872742 1.908 2.687097 2.4216924 6.026774 4.3677436 10.038226 5.8571795 4.022419 1.4812821 7.304516 2.4352821 12.56629 2.2232821 3.016129-.1250257 5.420807-.6305641 9.254032-1.8889744 3.830484-1.2611282 7.178388-3.0957436 10.060162-5.4929743 2.741935-2.2966667 4.905322-5.0988718 6.503871-8.4337949 1.519032-3.2126154 2.308709-6.8084615 2.358064-10.7712308v-.6930769c-.104193-6.4469744-3.534355-16.060359-11.897258-21.8686154-.573064.4810769-1.17629.9186667-1.812419 1.2556923-1.960484 1.0844616-4.077258 1.6253334-6.155645 1.8808205-1.052904.1277436-2.092097.1657949-3.134033.1494872-.515483-.0027179-1.033709-.0434872-1.546451-.0842564-.257742-.0163077-.518226-.0462051-.775968-.0815385l-.381129-.0570769-.200161-.0298974-.093226-.0163077-.052097-.0135898h-.035645c-.063065-.0054358-.139839-.0244615-.222097-.0625128-.159032-.0679487-.276935-.2283077-.318064-.3343077.041129-.0733846.085-.157641.134355-.2418974l-.049355.0434872s.112419-.1739487.296129-.478359c.035645-.0597949.076774-.1141538.112419-.1821026.712903-1.1687179 2.229194-3.7317435 3.391774-6.1697435-1.957742-.3587693-4.047097-.5626154-6.298226-.5626154-17.446935 0-24.784354 11.4914871-25.894838 13.2146666l-1.8672583-11.5866154h-4.9217742c-.002742-.0244615-.0137097-.0462051-.0164516-.0733846-.4770968-3.4599487.126129-6.514923.3016129-6.4524102.7183871.2473333 1.275.1522051 1.7959677.0625128 1.2448387-.2201538 2.2620968-.4430256 4.8230645 4.082359 1.806936 3.1963077 3.633065 2.6880513 4.359677 3.9355897.460646.793641 2.931129.2962564 2.456775-.9295384-.26871-.7121026-1.187258-3.7453334-1.102258-4.2236924.148064-.318.222096-.6387179.134354-1.0083589-.054838-.2255898-.542903-.5109744-.775967-1.1279487.104193.0407692.427742.209282.660806.209282.392097-.0027179.935-.2772308 1.143387-.4729231.350968-.3370256-.721129-.7202564-1.220161-.7583077-.323548-.0244615-.660807.1141539-.984355.1141539-.123387-1.0110769-.740322-1.3100513-1.368226-1.3589744-1.338064-.0951282-2.920161-2.7206666-4.507742-5.63974357-1.3846771-2.53584615-3.9620964-6.22410256-7.0577416-6.78943589-4.5379032-.83712821-8.2943548-.06794872-15.9937097-.80994872-1.8041935-.17394872-3.0819354-.27994872-4.1046774-.27994872-1.7082258 0-2.7090322.29353846-4.2938709 1.03825641zm13.5780645 10.04825639c-.7732258-.318-1.6204839-.7039487-1.9385484-1.46769229-.3509678-.8425641.0575806-1.80471795-.1124194-2.69348718-.2248387-1.15241025-1.8809677-3.64748718-2.9037096-4.23728205l7.5156451-.04892307c.7293549 0 1.0337097-.01902565 1.5217742.46205128.4770968.48107692.7759677 1.20676923.5566129 1.84820513-.3701613 1.10076923-1.9577419 1.40246153-2.3608064 2.48964102-.1233871.34517949-.1124194.71753846-.1014517 1.07630769l.0520968 1.55194877c.0082258.2908205.0109678.5897948-.126129.8344102-.1837097.3288718-.5785484.4865128-.9541936.4865128h-.0329032c-.3920968-.0108718-.7540322-.157641-1.1159677-.3016923zm-5.9911291 4.9222051c.5154839-.0543589.3482258-.9431282.3290323-1.4486666.4469355-.3669231.808871-.8969231 1.0172581-1.6090257 1.7466129.7311282 4.1759677 1.4432308 7.9708064 1.7014359s-.0877419 3.6665129-.1069355 4.0388718c-.0082258.3044103-.3454838 1.9677949-.4962903 2.8293846h-10.5427419c-.8006452-1.6606666-1.3024194-3.6991282-1.2832258-4.0334358.0356451-.8561539.1014516-1.5057436.2303225-2.4053847.0630646.0271795.2796775.0679488.3564517.0924103.041129.3805128.1919354 1.0273846.5895161 1.0273846.4469355 0 .4441935-.6550256.4606451-1.0382564.17.0108718.5785484-.0597949.7293549-.1195897.1151613.3506153.2824193.9675897.6937097.9675897.0137096 0 .0274193 0 .0520967-.002718zm11.052742 3.0305129c.6087097-.799077 1.7630645-4.0225641 1.7630645-4.0225641.3235484.1331795 1.7493548.2582051 2.3608064.1087179.1206452-.0434872.8417742 4.3106667 1.1241936 6.1887692.0109677.0625129.0246774.1413334.0356452.2065641h-5.952742c.1343549-.8534358.3756452-2.0520512.6690323-2.4814871zm-16.7724194-2.0275898 1.7987097 4.5090769h-1.0858065c-.3729032-1.4377948-.6635483-3.5768205-.7129032-4.5090769zm47.9591936 19.1071795c-1.069355-.2527692-2.207258-.6387179-2.813226-1.5437949-1.283226-1.9460512 1.307903-2.9435384 2.821452-3.1365128 4.655806-.5762051 9.435-.5517436 14.118226-.3478974 1.527258.0679487 4.751774.0434872 5.585322 1.6280513.45242.8615897-.024677 2.062923-.106935 3.0631282-.087742 1.0137948-.175484 2.0248718-.26871 3.0359487-.235806 2.6826154-.471613 5.3652308-.704677 8.0505641-.474355 5.4413333-.94871 10.8772308-1.434033 16.324 0 1.6688205-3.931935 2.1879487-8.785161 2.1879487-.024677 0-.038387-.0054359-.052097-.0054359-.019193 0-.032903.0054359-.049355.0054359-4.855967 0-8.793387-.5191282-8.793387-2.1879487 0-4.2753333-.743064-8.5044615-1.115967-12.7471795-.178226-2.0357436-.35371-4.0742051-.53742-6.1072308-.153548-1.747641-.137097-3.6936923-.589516-5.3896923s6.152903-.0353333 10.348065-.4158461c2.558225-.2364616 5.719677-.7746154 7.647258-2.2776411-2.730968.3261539-5.500323.5979488-8.253226.5979488-2.360807 0-4.713387-.2011282-7.016613-.7338462zm-57.5669355-1.5546667h39.3769355c-.403065.7256924-.7512904 1.4676924-1.0611291 2.2232821-1.3188709 3.1555385-1.9659677 6.572-1.9659677 10.2602564 0 1.9460513.1974193 3.8214359.5758064 5.6478974-1.0583871-1.0301025-2.2127419-1.9243076-3.4712903-2.6798974-2.8570968-1.693282-5.7854838-2.859282-8.7906451-3.4762564-3.0106452-.6115385-6.0651613-.9213846-9.1443549-.9213846-4.0004838 0-7.477258.4892308-10.4275806 1.4704102-2.9558065.9784616-5.3741936 2.0031282-7.2524194 3.0685641zm71.4575805-29.25599995c-.452419.35333333-.811613.93225641-.94871 1.54923077-.126129.64143589-.101451 1.19589743.219355 1.83189743.356452.7528718.85 1.51117945 1.36 2.35102565 1.03371 1.6742564 1.859033 3.6366154 2.226452 5.5745128.200161.9675898.32629 1.9406154.422258 2.9027692.01371.1549231.024677.318.041129.4865129.054839-.1331795.126129-.266359.178226-.3995385.375645-.8425641.701935-1.7041538 1.014516-2.5548718.592258-1.7095897 1.050161-3.446359 1.168064-5.1287692.115162-1.6796923-.14258-3.26969233-.924032-4.51723079-.200161-.30984616-.425-.59251282-.674516-.87789744-.276935-.29353846-.559355-.57620513-.852742-.80994872-.58129-.47292307-1.209193-.78548718-1.749355-.8425641-.087742-.01358974-.167258-.01630769-.246774-.01630769-.444193 0-.85.15492308-1.233871.45117949zm8.993549 9.28451285c-.534678.260923-.935.7691795-1.179033 1.4242051-.101451.2690769-.24129.9050769-.39758 1.3861538-.161775.5191282-.361936 1.0518462-.600484 1.5628206-1.025484 2.0792307-2.571936 3.5550769-4.055323 4.9167692-.762258.6822051-1.532742 1.3290769-2.303226 1.9759487-.222096.1739487-.48258.3913846-.718387.5789231l.880162-.1304616c.959677-.1630769 1.905645-.366923 2.826935-.6061025 1.839839-.478359 3.594677-1.1524103 5.083548-2.0873846 1.477904-.9512821 2.64871-2.174359 3.268388-3.6801026.671774-1.5465128.915806-3.3158974.304354-4.3840513-.370161-.7610256-1.220161-1.2094872-2.070161-1.2122051-.359193 0-.715645.0842564-1.039193.2554872zm-101.6764521 6.9280512c-.4551613.6033847-1.0748387 1.274718-1.8562903 2.0602052-.7759678.7718974-1.7767742 1.5111795-3.0051613 2.2395897-1.19.687641-2.7008065 1.2910257-4.4967742 1.7802564-1.8041936.4919487-3.953871.7311282-6.4298387.7311282h-2.3416129v3.6665129h10.792258l-.0329032 21.9365641c0 6.148-6.8137097 5.2619487-7.6746774 3.5632307-2.5006452-4.9466666-1.3270968-10.4070256.6059677-15.3482564-3.2190322 2.1009744-6.1254838 4.4927692-7.0824193 10.1542564-.2056452 1.2529744 0 2.1634872-.4606452 3.5143077-1.8069355-5.6642051-6.4901613-10.9669231-12.54161287-12.3340513.36467742.0896923 2.78032258 3.3675385 3.33693548 4.1149744 1.68080649 2.2694872 2.98322579 5.3896923 3.60290319 8.107641-1.9796774-2.174359-5.12741932-4.6069231-8.26693545-3.5632307-1.04741935.3506153-1.93032258 1.0273846-2.6816129 1.8128717-.34.3587693-.68548387.744718-.94596774 1.1632821-.2083871.3478974-.40854839.7583077-.51822581 1.3671282 1.29967742-1.4377949 4.22258065-2.2042564 5.89241935-.9213846 2.00983871 1.535641 2.39645162 4.5770256-.4332258 5.403282-.76225807.2228718-1.56564516.3125641-2.36629032.3506154-1.06935484.0516411-.35096775 0-1.52451613 0v3.9546154l55.6695161-.0163077v-3.9627692c-.8225806-.0597949-2.1085484-.1168718-3.8304838-.3669231-1.7411291-.2500513-2.9804839-.5463077-3.7180646-.8561538-.8198387-.3614872-1.4559677-.8778975-1.9083871-1.5682564-.4359677-.6713334-.6470967-1.4785641-.6470967-2.4053847v-22.6704102c0-1.7775385.041129-3.7806667.1233871-6.0229744.0877419-2.2423077.17-4.2046666.255-5.884359z" fill="#fff" fill-rule="evenodd"/></mask><g fill="none" fill-rule="evenodd"><path d="m117.912192 79.1165518c.603895.0750147 1.056672.5844502 1.055645 1.1877436.126398 1.726178-.020764 3.4613287-.436132 5.142359-.795271 2.9571282-1.563013 5.9233162-2.303226 8.8985641-.585111 2.284376-.665603 4.6670693-.235971 6.9851285.17.891487.257742 1.799282.337395 2.701641.0265.334659-.015516.671175-.123524.989333-.101452.309846-.282419.712103-.704677.551744-.32169-.170304-.610399-.395754-.852742-.665898-.051878-.046205-.021771-.18482-.02742-.282666-.117812-1.861759-.235632-3.726272-.353463-5.5935389.071798-3.0200591.519373-6.0197837 1.332471-8.9311795.342742-1.4948718.690968-2.9815898 1.019863-4.4764616.010243-.1870974-.006319-.3746895-.04919-.5571795-.154571.1353173-.295176.2855445-.419736.4484616-.918548 1.4649743-1.746612 2.9924615-2.755645 4.3949231-.490747.6642556-1.278791 1.0478837-2.109114 1.0267379-.830322-.0211457-1.597454-.4443795-2.053144-1.1327379-.180796-.2226761-.32514-.472151-.427742-.7392821-.689769-2.0451952-1.088447-4.1757468-1.184516-6.3301026-.027419-.9838974.180968-1.2883077.715645-1.3562564.603226-.0788205.976349.2255898 1.157097 1.1958975.211129 1.1252307.260484 2.2804948.449869 3.4110256.137064.8498379.33778 1.6883787.600484 2.5086667.244033.7528718.732097.8751795 1.30242.3642051.391986-.3550662.73826-.7567355 1.030967-1.1958974 1.558906-2.2090947 2.786359-4.6306227 3.644033-7.1889744.046987-.1858793.106595-.3683979.178417-.5463077.285162-.6278461.723625-.9159487 1.211936-.8099487zm23.596877.4187c.185849.1226777.296807.3299399.295121.5512655-.001685.2213255-.115788.4269035-.303484.5467858-.330815.2017363-.674252.3823923-1.028225.5408718-1.96172.9649591-3.636911 2.4185138-4.861452 4.2182564-.213369.3192635-.372672.6709433-.471613 1.0411374-.257742 1.1415385.427742 1.8590769 1.535649 1.5003077 1.277577-.4185641 2.497601-1.0165128 3.734351-1.5546667.255072-.1385117.500511-.2937814.734674-.4647692.665034-.3136199 1.063117-1.0041711.998065-1.7313333-.068302-1.1197949.208524-1.3698462.998064-1.3508205.830807.0163077 1.23675.4484615 1.28871 1.3943077.010968.2908205.010968.581641 0 .8670256-.04247 2.4443265.171639 4.8864036.638871 7.2868205.019413.1386154.167258.2962564.131613.3995385-.120508.3397436-.210882.793641-.468597.9485641-.194453.1148555-.430832.1365238-.643237.058964-.212404-.0775599-.378114-.2460523-.450932-.4585025-.360304-.8835083-.664341-1.7885504-.910323-2.7097949-.149789-.7502463-.259619-1.5077909-.329032-2.2694871-.087742-.6115385-.285161-.7229744-.885645-.4484616-1.105987.5810027-2.244869 1.0982723-3.410968 1.5492308-.880891.2475479-1.798328.3422591-2.711774.2799487-.903112-.0387339-1.689904-.6223441-1.982145-1.4702743-.18354-.5389486-.327412-1.0903806-.430566-1.649958v-.000299c.113063-1.4178706.722025-2.752109 1.721743-3.7723497.907171-1.1335367 2.036818-2.0729458 3.320648-2.7614359.779392-.3655289 1.594289-.6514809 2.432097-.8534359.378905-.0224776.753673.0881991 1.058387.3125641zm23.822758-.9506026c.683938.2348719 1.233171.7496038 1.508065 1.4133334.147562.2737355.152426.6013183.013056.8792402-.139371.277922-.405759.4718484-.714992.5205034-.573064.1929743-.965161.0706666-1.370967-.5653334-.259519-.52642-.735128-.9165946-1.305354-1.0708718-.411093-.0911892-.837736-.0884008-1.24758.0081539-.825323.2201538-1.058387.687641-.669032 1.3290769.262218.3999124.584976.757432.956935 1.06 1.428548 1.220359 2.895484 2.4081026 4.324032 3.6284615.961071.7217074 1.543975 1.8334081 1.587581 3.0277949-.085492 1.2039059-.71143 2.306262-1.705347 3.0033333-1.16373 1.0100699-2.585907 1.6824923-4.110161 1.9433334-.142581.0271795-.287903.0298974-.391932.0407692-1.420419.1091278-2.714219-.8107947-3.065292-2.179659-.041129-.1821025.197419-.4104102.304355-.6171102.24708.0543414.483353.1489422.699193.2799487.966795 1.2337959 2.75829 1.4598682 4.006105.5055385.802499-.4701706 1.45816-1.1512128 1.894458-1.9677949.54413-1.0122109.213763-2.2689209-.759516-2.8891795-.956936-.8670256-1.990645-1.6715385-2.985968-2.5032308-.720964-.6061025-1.464029-1.1931795-2.146935-1.8264615-.71526-.5540104-1.124014-1.4107305-1.102258-2.3102564.029982-.8053838.578603-1.5005104 1.36-1.7231795 1.58398-.6085319 3.341019-.6036802 4.921554.0135897zm-9.462117.5741395c.365934.1140459.664006.3797656.817096.7284103.497585 1.2676658.333597 2.6969085-.438462 3.8214359-.277456.3134882-.669036.505073-1.088823.5327179-.419516.0487872-.693518-.2228718-.605831-.7447179.127972-.6076007.185924-1.2276414.172742-1.8482052-.052097-.8153846-.65258-1.0409743-1.313387-.5463076-1.109529.9477048-1.872814 2.2316456-2.171613 3.652923-.541546 2.1299907-.596813 4.3529213-.161774 6.5067693.032903.2310256.106771.4674871.120481.7039487.030161.4647692-.074033.8615897-.627904.9730256-.524934.1842365-1.104642-.0616984-1.33258-.5653333-.14965-.3536036-.268891-.7191088-.356452-1.0926154-.767101-2.7146786-1.254912-5.4993787-1.455968-8.3114872-.053904-.6536342-.141716-1.3040847-.263088-1.9487692.000027-.5162744.010721-.7121026-.002989-.902359-.035481-.6115384.348445-.8670256.861215-.9648718.539887-.106.822361.263641.948545.6985128.202903.6876411.34 1.3888718.490806 2.0873847.06057.2799487.06057.5734871.139839.848.077378.172701.178913.3337362.301613.4783589.119489-.1431929.226853-.2959164.320998-.4566154.453504-1.063085 1.122586-2.022436 1.965721-2.8185128 1.027036-.8341543 2.389507-1.1420928 3.679815-.8316923zm-25.391694.9229339c.793237.3981274 1.351873 1.1423344 1.508694 2.0098622.156822.8675278-.106368 1.7577073-.710791 2.4040865-.969355 1.0853338-2.212999 1.8949801-3.602903 2.3455897-1.197238.3570188-2.412702.6509685-3.64129.8806154-.35371.0788205-.499032.214718-.362155.5925128.397418 1.2246652 1.475988 2.1091944 2.764035 2.2667693 1.151719.2237958 2.343168.1326585 3.446613-.2636411.165497-.1009752.350386-.1666941.542904-.1929743.263417.0190256.638871.0597948.756774.2310256.094665.2549379.058987.5395277-.095749.7637436-.231047.355595-.563037.6355067-.954193.8045128-.866452.2636411-1.776966.3832308-2.741936.5762052h-.000466c-.926774-.2065641-1.872742-.375077-2.794032-.6278462-1.532366-.4218095-2.701695-1.6521867-3.035131-3.1935897-.159032-.5707693-.216914-1.1199308-.866451-1.378-.189194-.0788206-.320807-.3478975-.436133-.5544616-.290645-.5327179-.191935-.9567179.345759-.9784615.896338-.0298975 1.025209-.6169744 1.340806-1.2339487 1.155715-2.3731873 3.293578-4.1323787 5.859516-4.8216411.90644-.2292297 1.86744-.0964913 2.676129.3696411zm-2.270377 1.3020333c-.093804.0221189-.185534.052125-.274194.0896923-1.769699.6996401-3.232508 1.9975263-4.129355 3.6637949-.238548.421282-.117903.5707692.751291.5897948 1.873367-.2383777 3.595285-1.1434357 4.845219-2.5467179.309619-.4076923.699194-.8452821.397581-1.432359-.205837-.3968205-.861215-.5381538-1.590542-.3642051z" fill="#008bd2" fill-rule="nonzero"/><g mask="url(#g)"><g transform="translate(-21.935484 -28.770871)"><ellipse cx="35.645161" cy="86.626532" fill="#3aa934" filter="url(#a)" rx="35.645161" ry="35.333333"/><ellipse cx="105.676794" cy="65.783663" fill="#f49900" filter="url(#b)" rx="41.087239" ry="54.415218" transform="matrix(.93969262 .34202014 -.34202014 .93969262 28.872428 -32.176352)"/><path d="m88.2348677 140.939698c14.3861273 0 26.0483873-11.560237 26.0483873-25.820512 0-14.260276-12.155193-23.8354945-26.5413195-23.8354945-14.386127 0-21.9354839 2.0474169-21.9354839 16.3076925 0 14.260275 8.0422892 33.348314 22.4284161 33.348314z" fill="#e11014" filter="url(#c)"/><ellipse cx="175.32983" cy="61.386256" fill="#0094d3" filter="url(#d)" rx="41.129032" ry="54.358974"/><ellipse cx="67.25444" cy="53.385103" fill="#e3dc00" filter="url(#e)" rx="24.677419" ry="24.461539"/><ellipse cx="134.277818" cy="86.626532" fill="#e5007d" filter="url(#f)" rx="31.532258" ry="31.25641"/></g></g></g></svg>